# xmcd CD database file
#
# Track frame offsets:
#	183
#	31295
#	58658
#	97583
#	126733
#	158708
#	190058
#	245208
#
# Disc length: 3893 seconds
#
# Revision: 0
# Processed by: cddbd v1.5.2PL0 Copyright (c) Steve Scherf et al.
# Submitted via: CDex 1.70beta2
#
DISCID=680f3308
DTITLE=Charles Mingus - Mingus at the Bohemia
DYEAR=1955
DGENRE=Jazz
TTITLE0=JUMP MONK
TTITLE1=SERENADE IN BLUE
TTITLE2=PERCUSSION DISCUSSION
TTITLE3=WORK SONG
TTITLE4=SEPTEMBERLY
TTITLE5=ALL THE THINGS YOU C#
TTITLE6=JUMP MONK
TTITLE7=ALL THE THINGS YOU C#
EXTD=YEAR: 1955
EXTT0=
EXTT1=
EXTT2=
EXTT3=
EXTT4=
EXTT5=
EXTT6=
EXTT7=
PLAYORDER=
